<svg width="125" height="48" viewBox="0 0 125 48" fill="none" xmlns="http://www.w3.org/2000/svg">
<path d="M50.2557 26.893C50.1286 28.5924 49.5314 29.9546 48.464 30.9795C47.4093 31.9914 46.037 32.4973 44.347 32.4973C42.4283 32.4973 40.8908 31.8357 39.7345 30.5124C38.5782 29.1892 38 27.4314 38 25.2389C38 23.9157 38.2478 22.7157 38.7433 21.6389C39.2389 20.5492 39.9823 19.6735 40.9734 19.0119C41.9645 18.3373 43.1272 18 44.4614 18C45.8972 18 47.1489 18.4086 48.2162 19.2259C49.2836 20.0303 49.9253 21.1978 50.1413 22.7286H47.7778C47.6127 21.8984 47.2314 21.2497 46.6342 20.7827C46.037 20.3027 45.3 20.0627 44.4233 20.0627C43.5211 20.0627 42.7523 20.3222 42.117 20.8411C41.4944 21.36 41.0496 22.0022 40.7828 22.7676C40.5286 23.52 40.4016 24.3438 40.4016 25.2389C40.4016 25.9135 40.4778 26.5492 40.6303 27.1459C40.7828 27.7427 41.0115 28.2941 41.3165 28.8C41.6214 29.293 42.0344 29.6886 42.5554 29.987C43.0891 30.2854 43.7053 30.4346 44.4042 30.4346C46.4246 30.4346 47.5809 29.2541 47.8731 26.893H50.2557Z" fill="#1F2E3C"/>
<path d="M53.7566 18.253V20.4324H51.5838V18.253H53.7566ZM53.7566 22.1254V32.1665H51.5838V22.1254H53.7566Z" fill="#1F2E3C"/>
<path d="M60.3554 22.1254V23.7405H58.3732V29.0335C58.3732 29.3449 58.3795 29.5654 58.3922 29.6951C58.4049 29.8119 58.4431 29.9481 58.5066 30.1038C58.5701 30.2465 58.6781 30.3438 58.8306 30.3957C58.9958 30.4476 59.2182 30.4735 59.4977 30.4735C59.8535 30.4735 60.1394 30.4605 60.3554 30.4346V32.1859C59.9234 32.2378 59.4342 32.2638 58.8878 32.2638C58.5066 32.2638 58.1699 32.2314 57.8776 32.1665C57.5981 32.1146 57.363 32.0497 57.1724 31.9719C56.9818 31.8941 56.823 31.7643 56.6959 31.5827C56.5688 31.3881 56.4672 31.2324 56.3909 31.1157C56.3274 30.9859 56.2766 30.7654 56.2384 30.4541C56.213 30.1427 56.2003 29.9092 56.2003 29.7535C56.2003 29.5849 56.2003 29.2995 56.2003 28.8973C56.2003 28.8454 56.2003 28.8065 56.2003 28.7805C56.2003 28.7416 56.2003 28.7027 56.2003 28.6638C56.2003 28.6119 56.2003 28.5665 56.2003 28.5276V23.7405H54.5612V22.1254H56.2003V19.1092H58.3732V22.1254H60.3554Z" fill="#1F2E3C"/>
<path d="M70 22.1254L66.3595 31.9719C66.3214 32.0627 66.2515 32.2508 66.1499 32.5362C66.0482 32.8346 65.9783 33.0357 65.9402 33.1395C65.9021 33.2432 65.8258 33.4249 65.7115 33.6843C65.6098 33.9438 65.5272 34.1254 65.4637 34.2292C65.4002 34.333 65.3049 34.4887 65.1778 34.6962C65.0507 34.9038 64.93 35.053 64.8156 35.1438C64.714 35.2346 64.5806 35.3449 64.4154 35.4746C64.2629 35.6173 64.1041 35.7146 63.9389 35.7665C63.7737 35.8314 63.5831 35.8832 63.3671 35.9222C63.1638 35.9741 62.9414 36 62.7 36C62.2934 36 61.7914 35.9611 61.1942 35.8832V34.0151C61.6517 34.1059 62.0329 34.1514 62.3378 34.1514C62.4903 34.1514 62.6301 34.1254 62.7572 34.0735C62.8842 34.0346 62.9986 33.9568 63.1002 33.84C63.2019 33.7362 63.2908 33.6324 63.3671 33.5286C63.4433 33.4378 63.5132 33.3016 63.5767 33.12C63.653 32.9514 63.7102 32.8151 63.7483 32.7114C63.7864 32.6205 63.8372 32.4714 63.9008 32.2638C63.9643 32.0562 64.0024 31.9265 64.0151 31.8746L60.2412 22.1254H62.6237L65.254 29.52L67.7318 22.1254H70Z" fill="#1F2E3C"/>
<path d="M83.5018 22.3969H81.2501C81.1113 20.7612 80.1337 19.9433 78.3171 19.9433C77.5098 19.9433 76.8791 20.12 76.4249 20.4733C75.9708 20.8135 75.7437 21.2846 75.7437 21.8866C75.7437 22.4493 75.9077 22.8353 76.2357 23.0447C76.5763 23.2541 77.3206 23.5093 78.4685 23.8103C78.7713 23.9019 79.0046 23.9673 79.1686 24.0065C80.6698 24.3991 81.6916 24.7525 82.234 25.0665C83.4324 25.7339 84.0316 26.7743 84.0316 28.1876C84.0316 28.8026 83.9307 29.3588 83.7289 29.8561C83.5271 30.3533 83.2558 30.7721 82.9152 31.1123C82.5746 31.4395 82.171 31.7143 81.7042 31.9368C81.2375 32.1592 80.7518 32.3162 80.2472 32.4079C79.7426 32.5125 79.2191 32.5649 78.6767 32.5649C76.9863 32.5649 75.6176 32.1461 74.5705 31.3086C73.5235 30.4711 73 29.241 73 27.6183H75.3274C75.3274 28.639 75.6491 29.398 76.2925 29.8953C76.9358 30.3795 77.7747 30.6216 78.8091 30.6216C79.7174 30.6216 80.4238 30.4318 80.9284 30.0523C81.4456 29.6598 81.7042 29.1167 81.7042 28.4231C81.7042 27.9782 81.5655 27.6183 81.2879 27.3435C81.023 27.0556 80.7329 26.8528 80.4175 26.735C80.1021 26.6172 79.5534 26.4537 78.7713 26.2443C78.683 26.2181 78.6136 26.1985 78.5631 26.1854C76.8854 25.7405 75.7816 25.374 75.2517 25.0862C74.1543 24.4973 73.5677 23.5878 73.492 22.3577C73.492 22.2661 73.492 22.1745 73.492 22.0829C73.492 20.8397 73.9398 19.8517 74.8355 19.1189C75.7437 18.373 76.9547 18 78.4685 18C79.9318 18 81.1239 18.3599 82.0448 19.0796C82.9657 19.7993 83.4514 20.9051 83.5018 22.3969Z" fill="#A7CC4A"/>
<path d="M87.2945 22.1221V23.4766C87.9505 22.3773 89.0102 21.8277 90.4735 21.8277C91.8233 21.8277 92.9018 22.3184 93.7092 23.2999C94.5165 24.2814 94.9202 25.59 94.9202 27.2257C94.9202 28.8222 94.5228 30.1047 93.7281 31.0731C92.946 32.0284 91.899 32.506 90.587 32.506C89.1994 32.506 88.1397 31.976 87.4081 30.916V36H85.2699V22.1221H87.2945ZM90.0383 23.6336C89.1931 23.6336 88.5308 23.9477 88.0514 24.5758C87.5721 25.2039 87.3324 26.0742 87.3324 27.1865C87.3324 28.2857 87.5721 29.1494 88.0514 29.7775C88.5434 30.4057 89.2183 30.7197 90.0761 30.7197C90.8961 30.7197 91.5457 30.4057 92.0251 29.7775C92.5045 29.1494 92.7441 28.2988 92.7441 27.2257C92.7441 26.1265 92.4982 25.2563 92.0062 24.615C91.5268 23.9607 90.8708 23.6336 90.0383 23.6336Z" fill="#A7CC4A"/>
<path d="M96.1374 25.2432C96.3645 22.9531 97.79 21.8081 100.414 21.8081C101.637 21.8081 102.609 22.0567 103.328 22.554C104.06 23.0513 104.425 23.8233 104.425 24.8702V30.0131C104.425 30.301 104.457 30.4973 104.52 30.602C104.596 30.7067 104.734 30.759 104.936 30.759C105.088 30.759 105.252 30.7459 105.428 30.7197V32.2901C104.873 32.434 104.406 32.506 104.028 32.506C103.107 32.506 102.577 32.1003 102.439 31.289C101.619 32.1003 100.477 32.506 99.0136 32.506C98.0044 32.506 97.2034 32.2377 96.6105 31.7012C96.0176 31.1516 95.7211 30.4122 95.7211 29.4831C95.7211 29.1952 95.7527 28.9269 95.8157 28.6783C95.8788 28.4297 95.9482 28.2137 96.0239 28.0305C96.1122 27.8473 96.2446 27.6772 96.4213 27.5202C96.6105 27.3631 96.7619 27.2323 96.8754 27.1276C97.0015 27.0229 97.1971 26.9248 97.462 26.8332C97.7395 26.7415 97.9413 26.6761 98.0675 26.6369C98.2063 26.5845 98.4396 26.5322 98.7676 26.4798C99.0956 26.4275 99.31 26.3948 99.411 26.3817C99.5245 26.3555 99.7516 26.3228 100.092 26.2835C100.862 26.1788 101.385 26.0938 101.663 26.0284C101.94 25.9498 102.129 25.8386 102.23 25.6947C102.319 25.59 102.363 25.3479 102.363 24.9684C102.363 23.9477 101.694 23.4373 100.357 23.4373C99.6506 23.4373 99.1334 23.5747 98.8055 23.8495C98.4775 24.1243 98.2693 24.5889 98.181 25.2432H96.1374ZM102.344 27.1668C102.18 27.2585 101.991 27.3435 101.776 27.422C101.562 27.4875 101.385 27.5333 101.246 27.5594C101.12 27.5725 100.912 27.5987 100.622 27.6379C100.344 27.6772 100.162 27.7034 100.073 27.7165C99.8083 27.7557 99.6002 27.795 99.4488 27.8342C99.2974 27.8604 99.1082 27.9128 98.8811 27.9913C98.6667 28.0698 98.4964 28.1679 98.3702 28.2857C98.2567 28.3904 98.1558 28.5409 98.0675 28.7372C97.9792 28.9204 97.935 29.1429 97.935 29.4046C97.935 29.8888 98.0864 30.2617 98.3892 30.5234C98.7045 30.7852 99.1397 30.916 99.6948 30.916C100.654 30.916 101.391 30.6478 101.909 30.1112C102.199 29.8103 102.344 29.2279 102.344 28.3642V27.1668Z" fill="#A7CC4A"/>
<path d="M115.034 28.4231C114.883 29.6663 114.404 30.6609 113.596 31.4068C112.789 32.1396 111.773 32.506 110.55 32.506C109.086 32.506 107.92 32.0284 107.049 31.0731C106.179 30.1047 105.744 28.8419 105.744 27.2846C105.744 25.6096 106.179 24.2814 107.049 23.2999C107.932 22.3053 109.118 21.8081 110.607 21.8081C111.855 21.8081 112.858 22.1352 113.615 22.7895C114.385 23.4438 114.833 24.3533 114.959 25.518H112.82C112.694 24.8768 112.442 24.386 112.064 24.0458C111.685 23.7056 111.206 23.5354 110.625 23.5354C109.793 23.5354 109.137 23.8626 108.658 24.5169C108.178 25.1581 107.939 26.0414 107.939 27.1668C107.939 28.2923 108.166 29.169 108.62 29.7972C109.086 30.4253 109.73 30.7394 110.55 30.7394C111.193 30.7394 111.717 30.5431 112.12 30.1505C112.537 29.7448 112.802 29.169 112.915 28.4231H115.034Z" fill="#A7CC4A"/>
<path d="M124.868 29.0905C124.628 30.1897 124.104 31.0469 123.297 31.6619C122.502 32.277 121.55 32.5845 120.44 32.5845C118.964 32.5845 117.791 32.0938 116.92 31.1123C116.062 30.1178 115.634 28.8484 115.634 27.3043C115.634 25.7208 116.075 24.4122 116.958 23.3784C117.854 22.3446 118.989 21.8277 120.364 21.8277C121.79 21.8277 122.919 22.3381 123.751 23.3588C124.584 24.3664 125 25.747 125 27.5005V27.7361H117.791C117.816 28.7568 118.062 29.5485 118.529 30.1112C118.995 30.6609 119.645 30.9357 120.478 30.9357C121.07 30.9357 121.55 30.7917 121.916 30.5038C122.294 30.2028 122.591 29.7317 122.805 29.0905H124.868ZM122.843 26.2443C122.78 25.3937 122.521 24.7263 122.067 24.2421C121.626 23.7448 121.052 23.4962 120.345 23.4962C119.639 23.4962 119.065 23.7317 118.623 24.2028C118.194 24.6739 117.929 25.3544 117.828 26.2443H122.843Z" fill="#A7CC4A"/>
<path d="M9 34V14L20 11V0L0 8V40L20 48V37L9 34Z" fill="#A7CC4A"/>
<path d="M20 19L9 14L20 11L26 14V34L20 37L9 34L20 29V19Z" fill="#1F2E3C"/>
</svg>
